<?xml version="1.0" encoding="UTF-8"?>
<svg id="Laag_1" xmlns="http://www.w3.org/2000/svg" version="1.1" viewBox="0 0 599.4 600.8">
  <!-- Generator: Adobe Illustrator 29.7.1, SVG Export Plug-In . SVG Version: 2.1.1 Build 8)  -->
  <g>
    <line x1="545.5" y1="546.3" x2="54.4" y2="55.2"/>
    <path d="M583.7,508.1c-4.4-4.4-8.7-8.7-13.1-13.1l-35.8-35.8c-17.6-17.6-35.1-35.1-52.7-52.7l-64.7-64.7-70.5-70.5c-23.5-23.5-47.7-47.7-71.5-71.5l-66.3-66.3c-22.1-22.1-37.4-37.4-56.1-56.1l-40.5-40.5c-6.4-6.4-12.7-12.8-19.1-19.1s-.6-.6-.8-.8C82.8,7.2,68.2,1.2,54.4,1.2s-29.1,5.9-38.2,15.8C6.7,27.3-.3,40.8.4,55.2c.7,14.4,5.5,27.8,15.8,38.2,10.3,10.4,8.7,8.7,13.1,13.1,11.9,11.9,23.9,23.9,35.8,35.8,17.6,17.6,35.1,35.1,52.7,52.7s43.1,43.1,64.7,64.7l70.5,70.5,71.5,71.5,66.3,66.3c22.1,22.1,37.4,37.4,56.1,56.1,18.7,18.7,27,27,40.5,40.5s12.7,12.8,19.1,19.1c6.4,6.3.6.6.8.8,9.8,9.8,24.3,15.8,38.2,15.8s29.1-5.9,38.2-15.8c9.4-10.3,16.5-23.8,15.8-38.2-.6-14.3-5.5-27.8-15.8-38.2h0Z"/>
  </g>
  <g>
    <line x1="53.4" y1="546.3" x2="545.5" y2="54.3"/>
    <path d="M91.6,584.5c4.4-4.4,8.8-8.8,13.2-13.2,11.9-11.9,23.9-23.9,35.8-35.8,17.6-17.6,35.1-35.1,52.7-52.7l64.6-64.6,70.8-70.8,71.5-71.5c22.2-22.2,44.4-44.4,66.7-66.7s37.4-37.4,56.1-56.1,27-27,40.6-40.6,12.9-12.8,19.2-19.2.6-.6.8-.8c9.8-9.8,15.8-24.3,15.8-38.2s-5.9-29.1-15.8-38.2S559.9-.4,545.5.3c-14.4.7-27.8,5.5-38.2,15.8-4.4,4.4-8.8,8.8-13.2,13.2-11.9,11.9-23.9,23.9-35.8,35.8-17.6,17.6-35.1,35.1-52.7,52.7s-43.1,43.1-64.6,64.6-47.2,47.2-70.8,70.8-47.7,47.7-71.5,71.5c-22.2,22.2-44.4,44.4-66.7,66.7l-56.1,56.1c-13.5,13.5-27,27-40.6,40.6-6.4,6.4-12.9,12.8-19.2,19.2s-.6.6-.8.8c-9.8,9.8-15.8,24.3-15.8,38.2s5.9,29.1,15.8,38.2c9.9,9.1,23.8,16.5,38.2,15.8,14.3-.6,27.8-5.5,38.2-15.8h0Z"/>
  </g>
</svg>