<?xml version="1.0" encoding="UTF-8"?>
<svg id="Laag_1" xmlns="http://www.w3.org/2000/svg" version="1.1" viewBox="0 0 599.4 600.8">
  <!-- Generator: Adobe Illustrator 29.7.1, SVG Export Plug-In . SVG Version: 2.1.1 Build 8)  -->
  <g>
    <line x1="40.2" y1="303.4" x2="557.8" y2="303.4"/>
    <path d="M40.2,357.4h517.7c10.3,0,21.1-6,28.4-15.8,7-9.4,12.2-24.7,11.8-38.2-.4-14-3.9-28.5-11.8-38.2-7.9-9.7-17.5-15.8-28.4-15.8H41.1c-6.7,0-.6,0-.9,0-10.3,0-21.1,6-28.4,15.8-7,9.4-12.2,24.8-11.8,38.2s3.9,28.5,11.8,38.2c7.9,9.7,17.5,15.8,28.4,15.8h0Z"/>
  </g>
  <g>
    <line x1="40.2" y1="125.1" x2="557.8" y2="125.1"/>
    <path d="M40.2,179.1h517.7c10.3,0,21.1-6,28.4-15.8,7-9.4,12.2-24.7,11.8-38.2-.4-14-3.9-28.5-11.8-38.2-7.9-9.7-17.5-15.8-28.4-15.8H41.1c-6.7,0-.6,0-.9,0-10.3,0-21.1,6-28.4,15.8C4.8,96.3-.4,111.7,0,125.1s3.9,28.5,11.8,38.2c7.9,9.7,17.5,15.8,28.4,15.8h0Z"/>
  </g>
  <g>
    <line x1="40.2" y1="480.7" x2="557.8" y2="480.7"/>
    <path d="M40.2,534.7h517.7c10.3,0,21.1-6,28.4-15.8,7-9.4,12.2-24.7,11.8-38.2-.4-14-3.9-28.5-11.8-38.2-7.9-9.7-17.5-15.8-28.4-15.8H41.1c-6.7,0-.6,0-.9,0-10.3,0-21.1,6-28.4,15.8-7,9.4-12.2,24.7-11.8,38.2s3.9,28.5,11.8,38.2c7.9,9.7,17.5,15.8,28.4,15.8h0Z"/>
  </g>
</svg>