<?xml version="1.0" encoding="UTF-8"?>
<svg id="Laag_1" xmlns="http://www.w3.org/2000/svg" version="1.1" viewBox="0 0 598.14 328.9">
  <!-- Generator: Adobe Illustrator 30.2.1, SVG Export Plug-In . SVG Version: 2.1.1 Build 1)  -->
  <defs>
    <style>
      .st0 {
        fill: none;
      }
    </style>
  </defs>
  <g>
    <line class="st0" x1="40.22" y1="37.45" x2="557.82" y2="37.45"/>
    <path d="M40.22,74.9h517.7c10.3,0,21.1-4.16,28.4-10.96,7-6.52,12.2-17.13,11.8-26.49-.4-9.71-3.9-19.77-11.8-26.49-7.9-6.73-17.5-10.96-28.4-10.96H41.12c-6.7,0-.6,0-.9,0-10.3,0-21.1,4.16-28.4,10.96C4.82,17.48-.38,28.16.02,37.45s3.9,19.77,11.8,26.49c7.9,6.73,17.5,10.96,28.4,10.96h0Z"/>
  </g>
  <g>
    <line class="st0" x1="40.22" y1="164.45" x2="557.82" y2="164.45"/>
    <path d="M40.22,201.9h517.7c10.3,0,21.1-4.16,28.4-10.96,7-6.52,12.2-17.13,11.8-26.49-.4-9.71-3.9-19.77-11.8-26.49-7.9-6.73-17.5-10.96-28.4-10.96H41.12c-6.7,0-.6,0-.9,0-10.3,0-21.1,4.16-28.4,10.96C4.82,144.48-.38,155.16.02,164.45s3.9,19.77,11.8,26.49c7.9,6.73,17.5,10.96,28.4,10.96h0Z"/>
  </g>
  <g>
    <line class="st0" x1="40.22" y1="291.45" x2="557.82" y2="291.45"/>
    <path d="M40.22,328.9h517.7c10.3,0,21.1-4.16,28.4-10.96,7-6.52,12.2-17.13,11.8-26.49-.4-9.71-3.9-19.77-11.8-26.49-7.9-6.73-17.5-10.96-28.4-10.96H41.12c-6.7,0-.6,0-.9,0-10.3,0-21.1,4.16-28.4,10.96-7,6.52-12.2,17.2-11.8,26.49s3.9,19.77,11.8,26.49c7.9,6.73,17.5,10.96,28.4,10.96h0Z"/>
  </g>
</svg>